<?xml version="1.0" encoding="UTF-8"?>
<svg width="70px" height="70px" viewBox="0 0 70 70" version="1.1" xmlns="http://www.w3.org/2000/svg" xmlns:xlink="http://www.w3.org/1999/xlink">
    <title>icon_home</title>
    <defs>
        <rect id="path-1" x="0" y="0" width="70" height="70"></rect>
    </defs>
    <g id="Page-1" stroke="none" stroke-width="1" fill="none" fill-rule="evenodd">
        <g id="02_LEVEL-Copy" transform="translate(-3558, -90)">
            <g id="icon_home" transform="translate(3558, 90)">
                <mask id="mask-2" fill="white">
                    <use xlink:href="#path-1"></use>
                </mask>
                <g id="icon_home-(Background/Mask)"></g>
                <path d="M68.8363957,29.4100671 L37.5554279,2.03066691 C36.1408256,0.798593803 33.859208,0.821410058 32.4674218,2.09911545 L1.09519062,30.8703057 C-0.29659561,32.1480111 -0.365044157,34.2699133 0.935477377,35.6388834 L1.71122711,36.4602669 C3.01174865,37.829237 5.13365232,37.988948 6.4113577,36.8253235 L8.76142371,34.7262367 L8.76142371,65.4824286 C8.76142371,67.3761706 10.2901069,68.9048538 12.1838489,68.9048538 L24.4133138,68.9048538 C26.3070557,68.9048538 27.835739,67.3761706 27.835739,65.4824286 L27.835739,43.9667848 L43.4419965,43.9667848 L43.4419965,65.4824286 C43.4191803,67.3761706 44.7653356,68.9048538 46.6590776,68.9048538 L59.6186582,68.9048538 C61.5124002,68.9048538 63.0410834,67.3761706 63.0410834,65.4824286 L63.0410834,35.1369284 C63.466988,35.5171988 63.9461289,35.9431011 64.4785062,36.4146352 C65.2770721,37.1219364 66.942651,36.5515322 68.2203564,35.159746 L69.1101855,34.17865 C70.3878909,32.7868638 70.2509981,30.6421402 68.8363957,29.4100671 Z" id="Vector" fill="#FFFFFF" fill-rule="nonzero" mask="url(#mask-2)"></path>
            </g>
        </g>
    </g>
</svg>