<svg width="70" height="70" viewBox="0 0 70 70" fill="none" xmlns="http://www.w3.org/2000/svg">
<path d="M35 0C15.6701 0 0 15.6701 0 35C0 54.3299 15.6701 70 35 70C54.3299 70 70 54.3299 70 35C70 15.6701 54.3299 0 35 0ZM56.7082 45.7491C56.7228 48.6295 54.5398 50.3471 52.1523 50.3361C40.7077 50.2795 29.2631 50.2795 17.8185 50.3361C15.4876 50.3471 13.2516 48.6696 13.2662 45.7437C13.3027 38.5977 13.3027 31.4516 13.2662 24.3056C13.2516 21.3943 15.4767 19.6858 17.824 19.7186C23.5664 19.8008 29.3124 19.746 35.0566 19.746C40.8008 19.746 46.4592 19.8008 52.1578 19.7205C54.5252 19.6858 56.7246 21.4107 56.71 24.3111C56.6754 31.4571 56.6754 38.6031 56.71 45.7491H56.7082Z" fill="#00BCE4"/>
<path d="M53.2073 24.9553C52.908 25.1889 52.7035 25.3459 52.5027 25.5066C47.1127 29.7869 41.7244 34.0672 36.3325 38.3457C35.376 39.105 34.635 39.1287 33.7278 38.4095C28.9711 34.6367 24.218 30.8601 19.4649 27.0854C18.5979 26.3973 17.7291 25.711 16.769 24.9517C16.7507 25.2693 16.7325 25.4573 16.7325 25.6453C16.7325 32.3112 16.7306 38.9772 16.7325 45.6414C16.7325 46.6617 16.9424 46.868 17.9609 46.868C29.2978 46.868 40.6365 46.868 51.9734 46.868C53.043 46.868 53.2475 46.6708 53.2475 45.6195C53.2475 38.9754 53.2475 32.3313 53.2475 25.6891C53.2475 25.4828 53.2274 25.2766 53.2091 24.9553H53.2073Z" fill="#00BCE4"/>
<path d="M34.5619 34.6733C34.916 34.9563 35.1205 34.907 35.449 34.6441C40.0415 30.9844 44.6467 27.3393 49.2464 23.6887C49.4034 23.5646 49.5385 23.4149 49.7392 23.2251H20.2242C20.4214 23.4058 20.5364 23.5263 20.6641 23.6285C25.2986 27.3083 29.9366 30.9826 34.5601 34.6733H34.5619Z" fill="#00BCE4"/>
</svg>
