<?xml version="1.0" encoding="UTF-8"?>
<svg width="70px" height="70px" viewBox="0 0 70 70" version="1.1" xmlns="http://www.w3.org/2000/svg" xmlns:xlink="http://www.w3.org/1999/xlink">
    <title>icon_mail</title>
    <g id="Page-1" stroke="none" stroke-width="1" fill="none" fill-rule="evenodd">
        <g id="02_LEVEL-Copy" transform="translate(-3408, -90)" fill="#FFFFFF">
            <g id="icon_mail" transform="translate(3408, 90)">
                <path d="M0,35 C0,54.3298569 15.6701431,70 35,70 C54.3298569,70 70,54.3298569 70,35 C70,15.6701431 54.3298569,0 35,0 C15.6701431,0 0,15.6701431 0,35 Z M52.1522763,50.3361183 C40.7076868,50.2795342 29.2631022,50.2795342 17.8185128,50.3361183 C15.4876131,50.3470701 13.2516284,48.6696221 13.2662307,45.7436768 C13.3027366,38.597653 13.3027366,31.4516307 13.2662307,24.3056069 C13.2516284,21.3942641 15.4766613,19.6857886 17.8239885,19.7186438 C23.5663612,19.800782 29.3123856,19.7460249 35.0565836,19.7460249 C40.8007817,19.7460249 46.4591918,19.8007838 52.1577575,19.7204709 C54.525163,19.6857903 56.7246419,21.4106914 56.7100396,24.3110826 C56.675359,31.4571063 56.675359,38.6031287 56.7100396,45.7491524 L56.7082125,45.7491524 C56.7228148,48.6294653 54.53976,50.3470701 52.1522763,50.3361183 Z" id="Vector"></path>
                <path d="M52.5027478,25.5066729 C47.1126566,29.7869859 41.7243876,34.0672977 36.332471,38.3457853 C35.3760174,39.1051073 34.6349502,39.1288373 33.7277795,38.4096717 C28.9710653,34.6367904 24.2179983,30.8602571 19.4649344,27.0855505 C18.5979201,26.397415 17.7290826,25.7111042 16.7689783,24.9517822 C16.7507253,25.2693833 16.7324702,25.457389 16.7324702,25.6453942 C16.7324702,32.3113654 16.7306449,38.9773373 16.7324702,45.6414828 C16.7324702,46.6618218 16.942381,46.8680801 17.9608946,46.8680801 C29.2977913,46.8680801 40.6365115,46.8680801 51.9734083,46.8680801 C53.0430302,46.8680801 53.2474594,46.6709492 53.2474594,45.6195802 C53.2474594,38.9755123 53.2474594,32.3314445 53.2474594,25.6892023 C53.2474594,25.4829441 53.2273883,25.2766852 53.2091354,24.9554336 L53.2073083,24.9554336 C52.9079602,25.1890711 52.70353,25.3460471 52.5027478,25.5066729 Z" id="Vector" fill-rule="nonzero"></path>
                <path d="M35.4490156,34.64401 C40.0414536,30.9842971 44.6466679,27.3391854 49.2464073,23.6885989 C49.4033825,23.5644789 49.5384565,23.4148061 49.7392387,23.2249756 L20.2242432,23.2249756 C20.4213749,23.4056796 20.536369,23.5261474 20.6641395,23.6283638 C25.2985592,27.3081551 29.9366306,30.9824724 34.5600986,34.6732153 L34.5619257,34.6732153 C34.9160326,34.9561358 35.1204628,34.9068522 35.4490156,34.64401 Z" id="Vector" fill-rule="nonzero"></path>
            </g>
        </g>
    </g>
</svg>